<svg version="1.1" id="Layer_1" xmlns="http://www.w3.org/2000/svg" xmlns:xlink="http://www.w3.org/1999/xlink" x="0px" y="0px"
	 width="100%" viewBox="0 0 512 512" enable-background="new 0 0 512 512" xml:space="preserve">
<path fill="#FF816F" opacity="1.000000" stroke="none" 
	d="
M0.999997,186.000000 
	C1.000000,159.312439 1.000000,132.624878 1.375233,105.749924 
	C2.145201,105.048256 2.859439,104.551003 2.887866,104.017227 
	C3.569231,91.223099 6.306147,78.805824 12.170972,67.499641 
	C16.968393,58.251198 23.256971,49.776257 29.360407,40.969551 
	C42.417461,40.987186 54.998581,40.997532 67.579704,40.999294 
	C89.485260,41.002369 111.390816,41.000156 133.296371,41.000156 
	C154.535904,41.000156 175.775421,41.000156 197.014954,41.000156 
	C218.420990,41.000156 239.827026,41.000156 261.233063,41.000156 
	C282.472595,41.000156 303.712128,41.000160 324.951660,41.000153 
	C347.190216,41.000141 369.428802,41.000095 391.667358,41.000088 
	C420.066681,41.000076 448.466034,41.003162 476.865356,40.995174 
	C479.591766,40.994408 482.318176,40.924831 485.362122,41.026623 
	C490.117523,47.725910 495.145660,53.969532 498.866211,60.913727 
	C505.871582,73.988922 510.085358,88.043610 511.086517,102.964531 
	C511.134705,103.682587 512.335815,104.323280 513.000000,105.000000 
	C513.000000,206.020889 513.000000,307.041779 512.624756,408.250122 
	C511.502838,411.867523 510.521027,415.265289 510.047516,418.732544 
	C506.837738,442.236084 496.338531,462.309235 480.065765,479.086090 
	C473.132782,486.233826 464.594788,492.148987 455.976807,497.259460 
	C444.107452,504.298035 431.138214,509.013611 416.648956,510.025391 
	C390.846527,510.010498 365.520660,509.988770 340.195038,510.051147 
	C338.453613,510.055420 336.713776,510.687469 334.664368,510.899597 
	C320.810303,497.938599 307.030548,485.340332 293.834320,472.157928 
	C288.486877,466.816132 283.245575,460.772308 279.958954,454.066315 
	C265.651794,424.874237 266.205902,395.267578 279.937408,365.983551 
	C290.384613,343.703613 301.150238,321.569244 312.051849,299.507294 
	C320.761139,281.882080 334.217377,269.342102 353.860138,265.459229 
	C380.776917,260.138489 407.910522,255.924347 434.890320,250.908493 
	C445.774628,248.884995 456.497986,245.995773 467.566010,243.437820 
	C466.991302,242.389008 466.849762,241.886734 466.524078,241.579926 
	C465.312469,240.438446 464.074707,239.319138 462.785767,238.266235 
	C448.210510,226.360367 431.745483,217.560028 414.568390,210.268341 
	C395.752136,202.280807 376.523224,195.265350 357.533203,187.373444 
	C359.320435,170.709045 361.174255,154.509598 362.740295,138.282364 
	C364.208801,123.066139 366.623474,107.877808 364.129517,92.496910 
	C363.696655,89.827263 364.989685,86.916695 365.169159,84.097267 
	C365.329865,81.571915 365.770935,78.630211 364.687256,76.632019 
	C364.091827,75.534126 360.588684,75.721901 358.424561,75.840599 
	C355.787689,75.985245 353.196136,76.821869 350.557617,77.091995 
	C321.429626,80.074135 292.179810,82.162224 263.195312,86.171768 
	C230.430557,90.704254 197.595108,95.793800 167.198456,111.361206 
	C162.936447,111.179291 159.103226,110.670753 155.311722,110.888496 
	C108.333755,113.586365 66.675735,130.208252 30.164043,159.629944 
	C19.975431,167.840103 10.696329,177.178940 0.999997,186.000000 
z"/>
<path fill="#231F20" opacity="1.000000" stroke="none" 
	d="
M357.474152,187.826263 
	C376.523224,195.265350 395.752136,202.280807 414.568390,210.268341 
	C431.745483,217.560028 448.210510,226.360367 462.785767,238.266235 
	C464.074707,239.319138 465.312469,240.438446 466.524078,241.579926 
	C466.849762,241.886734 466.991302,242.389008 467.566010,243.437820 
	C456.497986,245.995773 445.774628,248.884995 434.890320,250.908493 
	C407.910522,255.924347 380.776917,260.138489 353.860138,265.459229 
	C334.217377,269.342102 320.761139,281.882080 312.051849,299.507294 
	C301.150238,321.569244 290.384613,343.703613 279.937408,365.983551 
	C266.205902,395.267578 265.651794,424.874237 279.958954,454.066315 
	C283.245575,460.772308 288.486877,466.816132 293.834320,472.157928 
	C307.030548,485.340332 320.810303,497.938599 334.821747,511.274445 
	C335.192017,512.184814 335.096008,512.592407 335.000000,513.000000 
	C258.645782,513.000000 182.291550,513.000000 105.381493,512.616821 
	C100.379234,511.388977 95.910187,510.647919 91.490128,509.682526 
	C66.837189,504.297974 45.594139,493.078888 29.025202,473.588776 
	C15.697073,457.910858 7.451769,439.991180 3.937620,419.770294 
	C3.303292,416.120270 1.996389,412.587097 1.000001,409.000000 
	C1.000000,341.645782 1.000000,274.291534 1.422385,206.505753 
	C5.637714,207.050064 9.704402,207.458725 13.162809,209.127777 
	C19.134493,212.009735 24.771427,215.602875 30.471308,219.026657 
	C40.973156,225.334808 52.065842,228.926590 64.561150,228.273209 
	C87.510803,227.073196 110.493614,226.511414 133.444901,225.337540 
	C165.206009,223.713074 196.953171,221.808975 228.699234,219.906494 
	C232.352478,219.687576 234.388519,220.919067 235.151260,224.456635 
	C236.061447,228.678207 237.081619,232.876114 237.988647,237.098328 
	C240.710861,249.770386 242.766541,262.627747 246.268036,275.079407 
	C250.446945,289.940002 261.866364,294.968781 276.236542,289.304047 
	C279.308441,288.093140 282.349823,286.620300 285.098938,284.804413 
	C306.315979,270.789886 320.942810,251.665207 327.998627,227.225967 
	C332.271942,212.424377 335.469452,197.312195 339.134186,182.405197 
	C344.859070,184.097397 351.166595,185.961823 357.474152,187.826263 
z"/>
<path fill="#FEFEFE" opacity="1.000000" stroke="none" 
	d="
M357.533203,187.373444 
	C351.166595,185.961823 344.859070,184.097397 339.134186,182.405197 
	C335.469452,197.312195 332.271942,212.424377 327.998627,227.225967 
	C320.942810,251.665207 306.315979,270.789886 285.098938,284.804413 
	C282.349823,286.620300 279.308441,288.093140 276.236542,289.304047 
	C261.866364,294.968781 250.446945,289.940002 246.268036,275.079407 
	C242.766541,262.627747 240.710861,249.770386 237.988647,237.098328 
	C237.081619,232.876114 236.061447,228.678207 235.151260,224.456635 
	C234.388519,220.919067 232.352478,219.687576 228.699234,219.906494 
	C196.953171,221.808975 165.206009,223.713074 133.444901,225.337540 
	C110.493614,226.511414 87.510803,227.073196 64.561150,228.273209 
	C52.065842,228.926590 40.973156,225.334808 30.471308,219.026657 
	C24.771427,215.602875 19.134493,212.009735 13.162809,209.127777 
	C9.704402,207.458725 5.637714,207.050064 1.422385,206.037094 
	C1.000000,200.311966 1.000000,194.623917 1.397763,188.732666 
	C18.585833,187.698730 35.373066,186.236298 52.167015,186.154678 
	C104.439819,185.900665 156.715286,186.223373 208.989227,186.106888 
	C212.213654,186.099686 215.899551,184.921783 218.581253,183.116058 
	C237.341614,170.483841 255.894028,157.542755 274.775726,144.601364 
	C289.770355,134.176208 304.389832,123.188484 322.687103,120.450607 
	C335.533386,118.528374 339.337097,109.527405 343.287659,99.262199 
	C341.694519,99.262199 340.532837,99.099831 339.430145,99.286301 
	C319.279114,102.693848 299.053497,105.730232 279.011444,109.693657 
	C256.547546,114.136017 234.300446,117.856369 211.507935,111.428993 
	C204.774872,109.530304 197.597321,110.577751 191.107300,115.041878 
	C183.018768,113.841904 175.332687,112.606987 167.646622,111.372078 
	C197.595108,95.793800 230.430557,90.704254 263.195312,86.171768 
	C292.179810,82.162224 321.429626,80.074135 350.557617,77.091995 
	C353.196136,76.821869 355.787689,75.985245 358.424561,75.840599 
	C360.588684,75.721901 364.091827,75.534126 364.687256,76.632019 
	C365.770935,78.630211 365.329865,81.571915 365.169159,84.097267 
	C364.989685,86.916695 363.696655,89.827263 364.129517,92.496910 
	C366.623474,107.877808 364.208801,123.066139 362.740295,138.282364 
	C361.174255,154.509598 359.320435,170.709045 357.533203,187.373444 
M319.745361,175.848816 
	C320.229218,177.140335 320.713104,178.431870 321.196960,179.723389 
	C321.689728,179.584503 322.182495,179.445602 322.675262,179.306717 
	C321.288849,172.705414 319.902466,166.104126 318.516052,159.502838 
	C317.717590,159.554001 316.919159,159.605179 316.120697,159.656357 
	C316.033203,161.541931 315.504120,163.540817 315.952606,165.288895 
	C316.814301,168.647415 318.230133,171.863754 319.745361,175.848816 
M358.958344,119.280716 
	C359.005493,119.773872 359.033356,120.270172 359.112854,120.758057 
	C359.133514,120.884697 359.303864,121.000809 359.427277,121.092346 
	C359.523895,121.164024 359.654205,121.190308 360.310028,121.454475 
	C359.996277,115.514229 359.695892,109.827774 359.395508,104.141312 
	C358.650818,104.193626 357.906128,104.245934 357.161407,104.298241 
	C357.742706,109.019653 358.323975,113.741066 358.958344,119.280716 
z"/>
<path fill="#242021" opacity="1.000000" stroke="none" 
	d="
M274.513000,144.700531 
	C255.894028,157.542755 237.341614,170.483841 218.581253,183.116058 
	C215.899551,184.921783 212.213654,186.099686 208.989227,186.106888 
	C156.715286,186.223373 104.439819,185.900665 52.167015,186.154678 
	C35.373066,186.236298 18.585833,187.698730 1.397763,188.264740 
	C1.000000,187.555557 1.000000,187.111099 0.999997,186.333328 
	C10.696329,177.178940 19.975431,167.840103 30.164043,159.629944 
	C66.675735,130.208252 108.333755,113.586365 155.311722,110.888496 
	C159.103226,110.670753 162.936447,111.179291 167.198456,111.361206 
	C175.332687,112.606987 183.018768,113.841904 191.437408,115.298141 
	C203.102798,118.351723 214.347687,120.334671 224.896942,124.210770 
	C241.679443,130.377136 257.998138,137.805771 274.513000,144.700531 
z"/>
<path fill="#FF9182" opacity="1.000000" stroke="none" 
	d="
M105.000000,1.000001 
	C206.021439,1.000000 307.042877,1.000000 408.222046,1.361646 
	C412.259857,2.482070 416.207489,2.997154 420.005798,4.050694 
	C427.752533,6.199411 435.418823,8.638175 442.642059,10.968839 
	C321.516418,10.986794 200.866959,10.999634 80.217529,10.955687 
	C77.762688,10.954792 75.308098,10.293005 73.029152,9.589594 
	C83.317261,7.149609 93.435501,5.086822 103.527161,2.901263 
	C104.127220,2.771308 104.513985,1.656515 105.000000,1.000001 
z"/>
<path fill="#000000" opacity="1.000000" stroke="none" 
	d="
M443.118256,10.957452 
	C435.418823,8.638175 427.752533,6.199411 420.005798,4.050694 
	C416.207489,2.997154 412.259857,2.482070 408.689880,1.361646 
	C443.593597,1.000000 478.187225,1.000000 513.000000,1.000000 
	C513.000000,35.353916 513.000000,69.708298 513.000000,104.531342 
	C512.335815,104.323280 511.134705,103.682587 511.086517,102.964531 
	C510.085358,88.043610 505.871582,73.988922 498.866211,60.913727 
	C495.145660,53.969532 490.117523,47.725910 485.228088,40.716087 
	C481.888977,37.496609 479.001404,34.727085 476.008667,31.683460 
	C475.306885,30.925468 474.710297,30.441582 473.998352,29.669931 
	C472.964905,28.573858 472.046814,27.765549 470.976532,26.640150 
	C467.921204,24.534721 465.018097,22.746384 461.968231,20.634367 
	C455.587097,17.192942 449.352661,14.075197 443.118256,10.957452 
z"/>
<path fill="#000000" opacity="1.000000" stroke="none" 
	d="
M104.531342,1.000001 
	C104.513985,1.656515 104.127220,2.771308 103.527161,2.901263 
	C93.435501,5.086822 83.317261,7.149609 72.659683,9.622393 
	C65.371422,13.656098 58.628384,17.307056 51.530380,20.981079 
	C48.077061,23.323565 44.978706,25.642981 41.604538,28.061150 
	C40.847874,28.759222 40.367023,29.358541 39.581024,30.082325 
	C38.573463,30.673346 37.871052,31.139902 36.902016,31.770206 
	C34.051750,34.942104 31.468113,37.950253 28.884476,40.958401 
	C23.256971,49.776257 16.968393,58.251198 12.170972,67.499641 
	C6.306147,78.805824 3.569231,91.223099 2.887866,104.017227 
	C2.859439,104.551003 2.145201,105.048256 1.375233,105.281265 
	C1.000000,70.406387 1.000000,35.812778 1.000000,1.000000 
	C35.353916,1.000000 69.708298,1.000000 104.531342,1.000001 
z"/>
<path fill="#000000" opacity="1.000000" stroke="none" 
	d="
M1.000001,409.468658 
	C1.996389,412.587097 3.303292,416.120270 3.937620,419.770294 
	C7.451769,439.991180 15.697073,457.910858 29.025202,473.588776 
	C45.594139,493.078888 66.837189,504.297974 91.490128,509.682526 
	C95.910187,510.647919 100.379234,511.388977 104.912834,512.616821 
	C70.406395,513.000000 35.812786,513.000000 1.000000,513.000000 
	C1.000000,478.646088 1.000000,444.291687 1.000001,409.468658 
z"/>
<path fill="#000000" opacity="1.000000" stroke="none" 
	d="
M417.125580,510.038757 
	C431.138214,509.013611 444.107452,504.298035 455.976807,497.259460 
	C464.594788,492.148987 473.132782,486.233826 480.065765,479.086090 
	C496.338531,462.309235 506.837738,442.236084 510.047516,418.732544 
	C510.521027,415.265289 511.502838,411.867523 512.624756,408.718811 
	C513.000000,443.593597 513.000000,478.187225 513.000000,513.000000 
	C478.646088,513.000000 444.291687,513.000000 409.158325,512.650024 
	C411.294739,511.546265 414.210175,510.792511 417.125580,510.038757 
z"/>
<path fill="#FF9081" opacity="1.000000" stroke="none" 
	d="
M416.648956,510.025421 
	C414.210175,510.792511 411.294739,511.546265 408.689636,512.650024 
	C384.645782,513.000000 360.291534,513.000000 335.468658,513.000000 
	C335.096008,512.592407 335.192017,512.184814 335.130615,511.402374 
	C336.713776,510.687469 338.453613,510.055420 340.195038,510.051147 
	C365.520660,509.988770 390.846527,510.010498 416.648956,510.025421 
z"/>
<path fill="#FF8775" opacity="1.000000" stroke="none" 
	d="
M29.360409,40.969551 
	C31.468113,37.950253 34.051750,34.942104 37.427917,31.882275 
	C52.642876,31.887064 67.065262,31.974722 81.487732,31.992750 
	C103.578041,32.020359 125.668404,32.000000 147.758743,32.000000 
	C170.182373,32.000000 192.605988,32.000000 215.029617,32.000000 
	C236.786667,32.000000 258.543732,32.000000 280.300781,32.000000 
	C300.724701,32.000000 321.148590,32.000000 341.572510,32.000000 
	C361.829773,32.000000 382.088043,32.125546 402.343933,31.959217 
	C417.806824,31.832245 433.265717,31.157478 448.728302,31.070833 
	C457.854889,31.019691 466.985229,31.639490 476.113861,31.957561 
	C479.001404,34.727085 481.888977,37.496609 484.910583,40.576660 
	C482.318176,40.924831 479.591766,40.994408 476.865356,40.995174 
	C448.466034,41.003162 420.066681,41.000076 391.667358,41.000088 
	C369.428802,41.000095 347.190216,41.000141 324.951660,41.000153 
	C303.712128,41.000160 282.472595,41.000156 261.233063,41.000156 
	C239.827026,41.000156 218.420990,41.000156 197.014954,41.000156 
	C175.775421,41.000156 154.535904,41.000156 133.296371,41.000156 
	C111.390816,41.000156 89.485260,41.002369 67.579704,40.999294 
	C54.998581,40.997532 42.417461,40.987186 29.360409,40.969551 
z"/>
<path fill="#FE8270" opacity="1.000000" stroke="none" 
	d="
M274.775726,144.601379 
	C257.998138,137.805771 241.679443,130.377136 224.896942,124.210770 
	C214.347687,120.334671 203.102798,118.351723 191.839874,115.263199 
	C197.597321,110.577751 204.774872,109.530304 211.507935,111.428993 
	C234.300446,117.856369 256.547546,114.136017 279.011444,109.693657 
	C299.053497,105.730232 319.279114,102.693848 339.430145,99.286301 
	C340.532837,99.099831 341.694519,99.262199 343.287659,99.262199 
	C339.337097,109.527405 335.533386,118.528374 322.687103,120.450607 
	C304.389832,123.188484 289.770355,134.176208 274.775726,144.601379 
z"/>
<path fill="#363233" opacity="1.000000" stroke="none" 
	d="
M319.580719,175.493958 
	C318.230133,171.863754 316.814301,168.647415 315.952606,165.288895 
	C315.504120,163.540817 316.033203,161.541931 316.120697,159.656357 
	C316.919159,159.605179 317.717590,159.554001 318.516052,159.502838 
	C319.902466,166.104126 321.288849,172.705414 322.675262,179.306717 
	C322.182495,179.445602 321.689728,179.584503 321.196960,179.723389 
	C320.713104,178.431870 320.229218,177.140335 319.580719,175.493958 
z"/>
<path fill="#3F3B3C" opacity="1.000000" stroke="none" 
	d="
M358.931824,118.871597 
	C358.323975,113.741066 357.742706,109.019653 357.161407,104.298241 
	C357.906128,104.245934 358.650818,104.193626 359.395508,104.141312 
	C359.695892,109.827774 359.996277,115.514229 360.310028,121.454475 
	C359.654205,121.190308 359.523895,121.164024 359.427277,121.092346 
	C359.303864,121.000809 359.133514,120.884697 359.112854,120.758057 
	C359.033356,120.270172 359.005493,119.773872 358.931824,118.871597 
z"/>
<path fill="#FF8D7D" opacity="1.000000" stroke="none" 
	d="
M51.885345,20.958014 
	C58.628384,17.307056 65.371422,13.656098 72.483917,9.972342 
	C75.308098,10.293005 77.762688,10.954792 80.217529,10.955687 
	C200.866959,10.999634 321.516418,10.986794 442.642059,10.968840 
	C449.352661,14.075197 455.587097,17.192942 461.492279,20.645475 
	C324.737152,20.972845 188.311249,20.965429 51.885345,20.958014 
z"/>
<path fill="#FF8A79" opacity="1.000000" stroke="none" 
	d="
M51.530380,20.981079 
	C188.311249,20.965429 324.737152,20.972845 461.639008,20.969154 
	C465.018097,22.746384 467.921204,24.534721 470.499695,26.651649 
	C331.359650,26.986828 192.544266,26.988714 53.728893,27.041569 
	C51.485809,27.042423 49.242958,27.666664 46.625000,27.999996 
	C45.500000,28.000021 44.750000,28.000050 43.646675,27.996807 
	C42.822353,27.983160 42.351353,27.972778 41.880352,27.962399 
	C44.978706,25.642981 48.077061,23.323565 51.530380,20.981079 
z"/>
<path fill="#FF8878" opacity="1.000000" stroke="none" 
	d="
M44.000000,28.000076 
	C44.750000,28.000050 45.500000,28.000021 46.942200,28.268597 
	C49.442249,28.691465 51.249893,28.977085 53.057976,28.979893 
	C73.485634,29.011627 93.913345,29.000000 114.341049,29.000000 
	C136.601059,29.000000 158.861084,29.000000 181.121094,29.000000 
	C203.047958,29.000000 224.974823,29.000000 246.901688,29.000000 
	C266.496521,29.000000 286.091370,29.000000 305.686188,29.000000 
	C342.937866,29.000000 380.189575,28.984262 417.441193,29.030012 
	C420.407196,29.033653 423.371002,29.637032 426.338654,29.664892 
	C442.263184,29.814379 458.188599,29.869783 474.113708,29.957691 
	C474.710297,30.441582 475.306885,30.925468 476.008667,31.683456 
	C466.985229,31.639490 457.854889,31.019691 448.728302,31.070833 
	C433.265717,31.157478 417.806824,31.832245 402.343933,31.959217 
	C382.088043,32.125546 361.829773,32.000000 341.572510,32.000000 
	C321.148590,32.000000 300.724701,32.000000 280.300781,32.000000 
	C258.543732,32.000000 236.786667,32.000000 215.029617,32.000000 
	C192.605988,32.000000 170.182373,32.000000 147.758743,32.000000 
	C125.668404,32.000000 103.578041,32.020359 81.487732,31.992750 
	C67.065262,31.974722 52.642876,31.887064 37.694550,31.718527 
	C37.871052,31.139902 38.573463,30.673346 39.959122,30.090858 
	C41.761585,29.316645 42.880791,28.658360 44.000000,28.000076 
z"/>
<path fill="#FF8978" opacity="1.000000" stroke="none" 
	d="
M473.998352,29.669926 
	C458.188599,29.869783 442.263184,29.814379 426.338654,29.664892 
	C423.371002,29.637032 420.407196,29.033653 417.441193,29.030012 
	C380.189575,28.984262 342.937866,29.000000 305.686188,29.000000 
	C286.091370,29.000000 266.496521,29.000000 246.901688,29.000000 
	C224.974823,29.000000 203.047958,29.000000 181.121094,29.000000 
	C158.861084,29.000000 136.601059,29.000000 114.341049,29.000000 
	C93.913345,29.000000 73.485634,29.011627 53.057976,28.979893 
	C51.249893,28.977085 49.442249,28.691465 47.317200,28.268597 
	C49.242958,27.666664 51.485809,27.042423 53.728893,27.041569 
	C192.544266,26.988714 331.359650,26.986828 470.651917,26.968740 
	C472.046814,27.765549 472.964905,28.573858 473.998352,29.669926 
z"/>
<path fill="#FF8978" opacity="1.000000" stroke="none" 
	d="
M43.646675,27.996807 
	C42.880791,28.658360 41.761585,29.316645 40.264275,29.966396 
	C40.367023,29.358541 40.847874,28.759222 41.604538,28.061150 
	C42.351353,27.972778 42.822353,27.983160 43.646675,27.996807 
z"/>
</svg>